<svg width="14" height="14" viewBox="0 0 14 14" fill="none" xmlns="http://www.w3.org/2000/svg">
<g clip-path="url(#clip0_1121_1051)">
<path fill-rule="evenodd" clip-rule="evenodd" d="M2.50677 1.10328C1.54819 1.52765 1.2113 2.06057 1.2113 2.63281C1.2113 3.20504 1.54819 3.73796 2.50677 4.16234C3.48118 4.59372 4.98357 4.84704 6.9996 4.84704C9.01563 4.84704 10.518 4.59372 11.4924 4.16234C12.451 3.73796 12.7879 3.20504 12.7879 2.63281C12.7879 2.06057 12.451 1.52765 11.4924 1.10328C10.518 0.671897 9.01563 0.418579 6.9996 0.418579C4.98357 0.418579 3.48118 0.671897 2.50677 1.10328ZM11.9984 5.30534C12.2644 5.18757 12.5113 5.05343 12.7347 4.90277C12.9087 4.78543 13.1634 4.89361 13.1728 5.10328C13.1921 5.53492 13.2035 5.97099 13.2035 6.41079C13.2035 6.76039 13.1926 7.13189 13.1742 7.50958C13.1702 7.59291 13.1243 7.6688 13.0522 7.71067C9.32114 9.87567 4.68815 9.8679 0.948465 7.71042C0.876002 7.66861 0.829927 7.59256 0.825868 7.509C0.807529 7.13151 0.796631 6.76021 0.796631 6.41079C0.796631 6.00663 0.806219 5.55998 0.822806 5.10594C0.830531 4.8945 1.08809 4.78373 1.26348 4.90208C1.48716 5.05302 1.73434 5.18739 2.00075 5.30534C3.20686 5.83929 4.91112 6.09704 6.9996 6.09704C9.08808 6.09704 10.7923 5.83929 11.9984 5.30534ZM1.34698 9.32591C1.16889 9.24276 0.963834 9.38215 0.983066 9.57775C1.0122 9.87405 1.04207 10.1535 1.07052 10.4064C1.18136 11.3916 1.73734 12.321 2.70062 12.7522C3.69144 13.1956 5.21925 13.7081 7.00006 13.7081C8.78087 13.7081 10.3087 13.1956 11.2995 12.7522C12.2628 12.321 12.8188 11.3916 12.9296 10.4064C12.958 10.1544 12.9877 9.87599 13.0168 9.58084C13.036 9.38505 12.8306 9.24564 12.6524 9.32909C9.0782 11.0032 4.92315 10.9957 1.34698 9.32591Z" fill="black"/>
</g>
<defs>
<clipPath id="clip0_1121_1051">
<rect width="14" height="14" fill="white"/>
</clipPath>
</defs>
</svg>
