<svg width="14" height="14" viewBox="0 0 14 14" fill="none" xmlns="http://www.w3.org/2000/svg">
<g clip-path="url(#clip0_1459_3614)">
<path fill-rule="evenodd" clip-rule="evenodd" d="M6.44392 1.05586C6.61273 0.677605 6.44295 0.234119 6.0647 0.0653024C5.68645 -0.103514 5.24297 0.0662659 5.07415 0.444517L4.73648 1.2011C3.82503 1.30091 3.11584 2.0733 3.11584 3.01132C3.11584 4.01711 3.93119 4.83245 4.93698 4.83245C5.94276 4.83245 6.75811 4.01711 6.75811 3.01132C6.75811 2.48093 6.53137 2.00349 6.16953 1.67066L6.44392 1.05586ZM7.01332 5.71118H6.98681H6.9868C6.20499 5.71117 4.11367 5.71115 2.54515 6.04234C1.71051 6.21857 1.16807 6.89579 0.955088 7.6171L0.953124 7.62375C0.849374 7.97512 0.783041 8.19977 0.751345 8.51458C0.747599 8.55179 0.744334 8.59029 0.741492 8.63051C0.736262 8.70449 0.782509 8.7732 0.855037 8.78872C2.90724 9.22798 5.85761 9.23059 7.00018 9.23059C8.14275 9.23059 11.0931 9.22798 13.1453 8.78872C13.2177 8.77323 13.2639 8.70465 13.2587 8.63081C13.2558 8.59048 13.2525 8.55188 13.2488 8.51458C13.2171 8.19977 13.1508 7.97512 13.047 7.62376L13.045 7.6171C12.8321 6.89579 12.2896 6.21857 11.455 6.04234C9.88647 5.71115 7.79514 5.71117 7.01333 5.71118H7.01332ZM0.725402 10.6496C0.720512 10.3336 1.01194 10.0964 1.32412 10.1462C3.42172 10.4806 5.97638 10.4806 6.98191 10.4806H6.98192H7.00018H7.01843H7.01844C8.02394 10.4806 10.5785 10.4806 12.676 10.1462C12.9882 10.0965 13.2796 10.3336 13.2747 10.6497C13.2713 10.8724 13.264 11.0452 13.2488 11.1966C13.2171 11.5114 13.1508 11.7361 13.047 12.0874L13.045 12.0941C12.8321 12.8154 12.2896 13.4926 11.455 13.6689C9.88646 14 7.79512 14 7.01332 14H6.98681C6.20501 14 4.11367 14 2.54515 13.6689C1.71051 13.4926 1.16807 12.8154 0.955088 12.0941L0.953124 12.0874C0.849374 11.7361 0.783041 11.5114 0.751345 11.1966C0.736101 11.0452 0.728849 10.8724 0.725402 10.6496Z" fill="white"/>
</g>
<defs>
<clipPath id="clip0_1459_3614">
<rect width="14" height="14" fill="white"/>
</clipPath>
</defs>
</svg>
