<svg width="14" height="14" viewBox="0 0 14 14" fill="none" xmlns="http://www.w3.org/2000/svg">
<g clip-path="url(#clip0_1121_663)">
<path fill-rule="evenodd" clip-rule="evenodd" d="M2.65964 1.72422C2.69441 1.68945 2.74156 1.66992 2.79073 1.66992H6.24988V12.3298H4.11707C3.70285 12.3298 3.36707 12.6656 3.36707 13.0798C3.36707 13.494 3.70285 13.8298 4.11707 13.8298H6.98984L6.99988 13.8299L7.00992 13.8298H9.88252C10.2967 13.8298 10.6325 13.494 10.6325 13.0798C10.6325 12.6656 10.2967 12.3298 9.88252 12.3298H7.74988V1.66992H11.2092C11.2583 1.66992 11.3055 1.68945 11.3403 1.72422C11.375 1.75899 11.3946 1.80614 11.3946 1.8553V3.25838C11.3946 3.67259 11.7303 4.00838 12.1446 4.00838C12.5588 4.00838 12.8946 3.67259 12.8946 3.25838V1.8553C12.8946 1.40831 12.717 0.979629 12.4009 0.663559C12.0849 0.347489 11.6562 0.169922 11.2092 0.169922H6.99988H2.79073C2.34374 0.169922 1.91505 0.347488 1.59898 0.663559C1.28291 0.97963 1.10535 1.40831 1.10535 1.8553V3.25838C1.10535 3.67259 1.44113 4.00838 1.85535 4.00838C2.26956 4.00838 2.60535 3.67259 2.60535 3.25838V1.8553C2.60535 1.80614 2.62488 1.75899 2.65964 1.72422Z" fill="black"/>
</g>
<defs>
<clipPath id="clip0_1121_663">
<rect width="14" height="14" fill="white"/>
</clipPath>
</defs>
</svg>
