<svg width="14" height="14" viewBox="0 0 14 14" fill="none" xmlns="http://www.w3.org/2000/svg">
<g clip-path="url(#clip0_1121_683)">
<path fill-rule="evenodd" clip-rule="evenodd" d="M7.35353 0.271447C7.15827 0.0761844 6.84168 0.0761844 6.64642 0.271447L5.12919 1.78868C4.96696 1.95091 4.71513 1.98191 4.51839 1.86387L3.11858 1.02398C2.94683 0.920933 2.73015 0.930321 2.56796 1.04784C2.40577 1.16536 2.32936 1.36833 2.37378 1.56364L3.07987 4.66755C3.13164 4.89515 3.334 5.05664 3.56741 5.05664H10.4325C10.666 5.05664 10.8683 4.89515 10.9201 4.66755L11.6262 1.56364C11.6706 1.36833 11.5942 1.16536 11.432 1.04784C11.2698 0.930321 11.0531 0.920933 10.8814 1.02398L9.48156 1.86387C9.28482 1.98191 9.033 1.95091 8.87076 1.78868L7.35353 0.271447ZM11.5547 6.59121C11.4811 6.41481 11.3049 6.30664 11.1138 6.30664H2.88628C2.69515 6.30664 2.51895 6.41481 2.44535 6.59121C2.10376 7.40993 1.9248 8.39667 1.9248 9.54989C1.9248 10.9728 2.5139 12.0898 3.48765 12.8303C4.43653 13.5518 5.69292 13.8751 7.00003 13.8751C8.30714 13.8751 9.56353 13.5518 10.5124 12.8303C11.4862 12.0898 12.0753 10.9728 12.0753 9.54989C12.0753 8.39668 11.8963 7.40994 11.5547 6.59121ZM7.77285 8.5518C7.57327 8.36136 7.26031 8.34023 7.03621 8.50107C6.95095 8.56226 6.86365 8.62116 6.77452 8.67765C5.97301 9.18564 4.99374 9.51999 3.94721 9.57683C3.66289 9.59228 3.42166 9.82128 3.47022 10.1018C3.58738 10.7787 3.92397 11.2776 4.39562 11.6363C5.01216 12.1051 5.91838 12.3751 7.00003 12.3751C8.08167 12.3751 8.98789 12.1051 9.60444 11.6363C9.98069 11.3502 10.271 10.9748 10.4325 10.491C10.515 10.2439 10.3433 9.99899 10.095 9.92001C9.2063 9.63725 8.40733 9.15722 7.77285 8.5518Z" fill="black"/>
</g>
<defs>
<clipPath id="clip0_1121_683">
<rect width="14" height="14" fill="white"/>
</clipPath>
</defs>
</svg>
