<svg width="14" height="14" viewBox="0 0 14 14" fill="none" xmlns="http://www.w3.org/2000/svg">
<g clip-path="url(#clip0_1459_3697)">
<path fill-rule="evenodd" clip-rule="evenodd" d="M10.2966 1.20542C11.2252 1.74291 11.8907 2.62069 11.7356 3.82602L11.7351 3.82959L11.2975 7.04646C11.28 7.17562 11.1661 7.26958 11.036 7.26254C9.68233 7.18935 8.29295 7.13293 6.87803 7.13293C5.48137 7.13293 4.10982 7.1879 2.773 7.25969C2.77249 7.25972 2.77204 7.25935 2.77196 7.25885L2.26811 3.85359C2.09935 2.64827 2.75522 1.76526 3.67938 1.22205C4.58667 0.688751 5.80357 0.439274 6.98422 0.436426C8.165 0.433578 9.38416 0.677227 10.2966 1.20542ZM3.23019 8.48751C3.08303 8.49497 2.97451 8.6277 2.99607 8.77346L3.19831 10.1402C3.21279 10.2381 3.28341 10.3183 3.37891 10.3441C4.52481 10.654 5.91952 10.9533 7.00005 10.9533C8.10537 10.9533 9.53945 10.6402 10.6996 10.3228C10.7958 10.2965 10.8665 10.215 10.88 10.1162L11.0609 8.78621C11.0806 8.64156 10.9726 8.51087 10.8269 8.50313C9.52948 8.43429 8.21259 8.38293 6.87803 8.38293C5.6467 8.38293 4.43022 8.42666 3.23019 8.48751ZM3.42056 11.6501C3.42112 11.6503 3.42166 11.6498 3.42158 11.6492C3.42149 11.6486 3.42202 11.6481 3.42258 11.6483C4.53608 11.9336 5.87982 12.2033 7.00005 12.2033C8.153 12.2033 9.54269 11.9176 10.6745 11.6233C10.6747 11.6232 10.6749 11.6234 10.6749 11.6236C10.6749 11.6239 10.6751 11.6241 10.6753 11.624C11.189 11.4833 11.6381 11.3447 11.9655 11.239C12.1415 11.1822 12.2817 11.135 12.3773 11.1022C12.4251 11.0858 12.4617 11.0731 12.4859 11.0646L12.5129 11.0551L12.5192 11.0528L12.5205 11.0524C12.9103 10.9125 13.3399 11.1151 13.4798 11.5049C13.6197 11.8948 13.4169 12.3243 13.027 12.4643L13.0235 12.4655L13.0148 12.4686L12.9828 12.4799C12.9551 12.4896 12.915 12.5036 12.8634 12.5212C12.7604 12.5565 12.6118 12.6066 12.4266 12.6664C12.0567 12.7859 11.5391 12.9451 10.9469 13.1046C9.78104 13.4186 8.25761 13.7525 7.00001 13.7525C5.74241 13.7525 4.21898 13.4186 3.05309 13.1046C2.46093 12.9451 1.94331 12.7859 1.57341 12.6664C1.38826 12.6066 1.23962 12.5565 1.13658 12.5212C1.08504 12.5036 1.04488 12.4896 1.01722 12.4799L0.985234 12.4686L0.976532 12.4655L0.97283 12.4642C0.58296 12.3243 0.380326 11.8948 0.520235 11.5049C0.660132 11.1151 1.08964 10.9125 1.47948 11.0523L1.48083 11.0528L1.48711 11.0551L1.5141 11.0646C1.53835 11.0731 1.57493 11.0858 1.62271 11.1022C1.7183 11.135 1.85856 11.1822 2.03451 11.239C2.38208 11.3513 2.86696 11.5005 3.42056 11.6501Z" fill="white"/>
</g>
<defs>
<clipPath id="clip0_1459_3697">
<rect width="14" height="14" fill="white"/>
</clipPath>
</defs>
</svg>
