<svg width="38" height="39" viewBox="0 0 38 39" fill="none" xmlns="http://www.w3.org/2000/svg">
<path fill-rule="evenodd" clip-rule="evenodd" d="M14.9283 0C12.1565 0 9.44171 0.0979161 6.80479 0.28561C3.30696 0.534587 0.475618 3.17432 0.306817 6.56752C0.1058 10.6083 0 14.8017 0 19.1016C0 23.4015 0.1058 27.5949 0.306817 31.6356C0.475621 35.0289 3.30696 37.6686 6.80479 37.9176C9.44171 38.1053 12.1565 38.2032 14.9283 38.2032C17.7001 38.2032 20.4149 38.1053 23.0518 37.9176C26.5497 37.6686 29.381 35.0289 29.5497 31.6356C29.5638 31.3538 29.3216 31.1279 29.0392 31.1285C28.3178 31.1294 27.592 30.9726 26.9148 30.652C25.1848 29.833 24.0818 28.0901 24.0818 26.1761C24.0818 25.5901 23.6067 25.115 23.0208 25.115H14.2156C10.8945 25.115 8.20217 22.4227 8.20217 19.1016C8.20217 15.7804 10.8945 13.0881 14.2156 13.0881H23.0208C23.6068 13.0881 24.0818 12.6131 24.0818 12.0272C24.0818 10.113 25.1848 8.37031 26.9148 7.55124C27.592 7.23059 28.3178 7.07395 29.0392 7.07483C29.3216 7.0752 29.5638 6.84946 29.5497 6.56752C29.381 3.17432 26.5497 0.534587 23.0518 0.28561C20.4149 0.0979161 17.7001 0 14.9283 0ZM28.4282 27.4549C27.9341 27.2209 27.6189 26.7229 27.6189 26.1761V21.9314H14.2154C12.6525 21.9314 11.3855 20.6645 11.3855 19.1016C11.3855 17.5387 12.6525 16.2717 14.2154 16.2717H27.6189V12.0272C27.6189 11.4803 27.9341 10.9823 28.4282 10.7483C28.9226 10.5143 29.5075 10.5861 29.9306 10.9326C33.1048 13.5335 34.7241 15.1515 37.2067 18.2099C37.6287 18.7295 37.6287 19.4737 37.2067 19.9933C34.7241 23.0517 33.1048 24.6697 29.9306 27.2706C29.5075 27.6172 28.9226 27.6888 28.4282 27.4549Z" fill="#D7D7D7"/>
</svg>
